<svg aria-hidden="true" style="position: absolute; width: 0; height: 0; overflow: hidden;" version="1.1" xmlns="http://www.w3.org/2000/svg" xmlns:xlink="http://www.w3.org/1999/xlink">
<defs>
<symbol id="icon-Envelope" viewBox="0 0 32 32">
<path  d="M28 6h-24c-0.265 0-0.52 0.105-0.707 0.293s-0.293 0.442-0.293 0.707v17c0 0.53 0.211 1.039 0.586 1.414s0.884 0.586 1.414 0.586h22c0.53 0 1.039-0.211 1.414-0.586s0.586-0.884 0.586-1.414v-17c0-0.265-0.105-0.52-0.293-0.707s-0.442-0.293-0.707-0.293zM16 16.644l-9.429-8.644h18.857l-9.429 8.644zM12.339 16l-7.339 6.726v-13.452l7.339 6.726zM13.819 17.356l1.5 1.381c0.185 0.169 0.426 0.263 0.676 0.263s0.492-0.094 0.676-0.263l1.5-1.381 7.25 6.644h-18.85l7.247-6.644zM19.661 16l7.339-6.728v13.455l-7.339-6.728z"></path>
</symbol>
<symbol id="icon-PhoneBig" viewBox="0 0 32 32">
<path  d="M27.796 19.808l-5.905-2.646c-0.306-0.131-0.639-0.183-0.97-0.153s-0.649 0.143-0.926 0.328c-0.033 0.022-0.064 0.045-0.094 0.070l-3.042 2.594c-1.928-0.936-3.918-2.911-4.854-4.814l2.597-3.089c0.025-0.031 0.049-0.062 0.071-0.096 0.181-0.276 0.29-0.592 0.319-0.92s-0.024-0.659-0.154-0.962v-0.015l-2.646-5.899c-0.172-0.396-0.467-0.726-0.841-0.94s-0.808-0.302-1.236-0.25c-1.694 0.223-3.249 1.055-4.374 2.34s-1.744 2.937-1.741 4.645c0 9.925 8.075 18 18 18 1.708 0.003 3.36-0.616 4.645-1.741s2.117-2.68 2.34-4.374c0.052-0.428-0.035-0.862-0.249-1.236s-0.544-0.67-0.94-0.841zM22 26c-4.242-0.005-8.309-1.692-11.309-4.691s-4.687-7.067-4.691-11.309c-0.005-1.221 0.435-2.401 1.237-3.321s1.912-1.517 3.122-1.679c-0.001 0.005-0.001 0.010 0 0.015l2.625 5.875-2.584 3.092c-0.026 0.030-0.050 0.062-0.071 0.096-0.188 0.289-0.298 0.621-0.32 0.965s0.045 0.688 0.195 0.998c1.132 2.316 3.466 4.633 5.808 5.764 0.312 0.149 0.658 0.214 1.003 0.189s0.678-0.139 0.966-0.331c0.032-0.022 0.063-0.045 0.092-0.070l3.039-2.592 5.875 2.631c0 0 0.010 0 0.014 0-0.16 1.212-0.756 2.323-1.676 3.128s-2.102 1.245-3.324 1.241z"></path>
</symbol>
<symbol id="icon-PhoneCall" viewBox="0 0 32 32">
<path fill="#fff" style="fill: var(--color1, #fff)" d="M19.034 4.741c0.034-0.127 0.093-0.246 0.173-0.35s0.18-0.192 0.293-0.257c0.114-0.066 0.239-0.108 0.37-0.125s0.263-0.008 0.389 0.026c1.854 0.484 3.545 1.453 4.9 2.808s2.324 3.046 2.808 4.9c0.034 0.127 0.043 0.259 0.026 0.389s-0.060 0.256-0.126 0.37c-0.066 0.114-0.153 0.213-0.257 0.293s-0.223 0.139-0.35 0.172c-0.085 0.022-0.171 0.034-0.259 0.034-0.22 0-0.435-0.073-0.609-0.207s-0.3-0.322-0.357-0.535c-0.394-1.513-1.185-2.894-2.291-4s-2.487-1.897-4-2.291c-0.127-0.034-0.246-0.092-0.351-0.172s-0.192-0.18-0.258-0.293c-0.066-0.114-0.109-0.239-0.126-0.37s-0.009-0.263 0.025-0.39zM18.743 9.966c1.724 0.46 2.831 1.567 3.291 3.291 0.057 0.213 0.182 0.401 0.357 0.536s0.389 0.207 0.609 0.207c0.087-0 0.174-0.012 0.259-0.034 0.127-0.034 0.246-0.093 0.35-0.172s0.192-0.18 0.257-0.293c0.066-0.114 0.108-0.239 0.126-0.37s0.008-0.263-0.026-0.389c-0.64-2.395-2.313-4.067-4.707-4.707-0.127-0.034-0.259-0.042-0.389-0.025s-0.256 0.060-0.369 0.126c-0.114 0.066-0.213 0.153-0.293 0.258s-0.138 0.223-0.172 0.35c-0.034 0.127-0.043 0.259-0.025 0.389s0.060 0.256 0.126 0.369c0.066 0.114 0.153 0.213 0.257 0.293s0.223 0.138 0.35 0.172zM28.985 21.885c-0.223 1.694-1.055 3.249-2.34 4.374s-2.937 1.744-4.645 1.741c-9.925 0-18-8.075-18-18-0.003-1.708 0.616-3.359 1.741-4.645s2.68-2.117 4.374-2.34c0.428-0.052 0.862 0.035 1.236 0.25s0.669 0.544 0.841 0.94l2.64 5.894v0.015c0.131 0.303 0.186 0.634 0.158 0.963s-0.137 0.646-0.317 0.923c-0.023 0.034-0.046 0.065-0.071 0.096l-2.603 3.085c0.936 1.903 2.926 3.875 4.854 4.814l3.043-2.589c0.030-0.025 0.061-0.048 0.094-0.070 0.277-0.184 0.595-0.297 0.926-0.328s0.665 0.022 0.97 0.153l0.016 0.007 5.889 2.639c0.397 0.171 0.727 0.466 0.943 0.84s0.303 0.809 0.251 1.237zM27 21.635c0 0-0.009 0-0.014 0l-5.875-2.631-3.044 2.589c-0.029 0.025-0.060 0.048-0.092 0.070-0.288 0.192-0.621 0.306-0.966 0.331s-0.691-0.040-1.003-0.189c-2.341-1.131-4.675-3.447-5.808-5.764-0.15-0.31-0.217-0.654-0.195-0.998s0.132-0.676 0.32-0.965c0.021-0.034 0.045-0.066 0.071-0.096l2.605-3.089-2.625-5.875c-0.001-0.005-0.001-0.010 0-0.015-1.212 0.158-2.325 0.753-3.13 1.672s-1.248 2.101-1.245 3.324c0.005 4.242 1.692 8.309 4.691 11.309s7.067 4.687 11.309 4.691c1.222 0.004 2.403-0.437 3.323-1.24s1.516-1.915 1.677-3.126v0.001z"></path>
</symbol>
<symbol id="icon-ArrowRight2" viewBox="0 0 32 32">
<path  d="M27.707 16.707l-9 9c-0.188 0.188-0.442 0.293-0.707 0.293s-0.52-0.105-0.707-0.293c-0.188-0.188-0.293-0.442-0.293-0.707s0.105-0.52 0.293-0.707l7.294-7.293h-19.586c-0.265 0-0.52-0.105-0.707-0.293s-0.293-0.442-0.293-0.707c0-0.265 0.105-0.52 0.293-0.707s0.442-0.293 0.707-0.293h19.586l-7.294-7.292c-0.188-0.188-0.293-0.442-0.293-0.707s0.105-0.52 0.293-0.707c0.188-0.188 0.442-0.293 0.707-0.293s0.52 0.105 0.707 0.293l9 9c0.093 0.093 0.167 0.203 0.217 0.325s0.076 0.252 0.076 0.383c0 0.131-0.026 0.262-0.076 0.383s-0.124 0.232-0.217 0.325z"></path>
</symbol>
<symbol id="icon-ArrowRight1" viewBox="0 0 32 32">
<path  d="M4.293 16.707l9 9c0.188 0.188 0.442 0.293 0.707 0.293s0.52-0.105 0.707-0.293c0.188-0.188 0.293-0.442 0.293-0.707s-0.105-0.52-0.293-0.707l-7.294-7.293h19.586c0.265 0 0.52-0.105 0.707-0.293s0.293-0.442 0.293-0.707c0-0.265-0.105-0.52-0.293-0.707s-0.442-0.293-0.707-0.293h-19.586l7.294-7.292c0.188-0.188 0.293-0.442 0.293-0.707s-0.105-0.52-0.293-0.707c-0.188-0.188-0.442-0.293-0.707-0.293s-0.52 0.105-0.707 0.293l-9 9c-0.093 0.093-0.167 0.203-0.217 0.325s-0.076 0.252-0.076 0.383c0 0.131 0.026 0.262 0.076 0.383s0.124 0.232 0.217 0.325z"></path>
</symbol>
<symbol id="icon-Star-1" viewBox="0 0 32 32">
<path fill="#f0db1b" style="fill: var(--color3, #f0db1b)" d="M16 1.333l3.592 11.056h11.625l-9.405 6.833 3.592 11.056-9.405-6.833-9.405 6.833 3.592-11.056-9.405-6.833h11.625l3.592-11.056z"></path>
</symbol>
<symbol id="icon-Wrench" viewBox="0 0 32 32">
<path fill="#fff" style="fill: var(--color1, #fff)" d="M28.345 8.625c-0.061-0.15-0.157-0.283-0.28-0.387s-0.27-0.178-0.428-0.213c-0.158-0.035-0.322-0.032-0.478 0.010s-0.3 0.121-0.419 0.231l-5.037 4.649-2.154-0.463-0.462-2.154 4.649-5.037c0.11-0.119 0.189-0.263 0.231-0.419s0.045-0.32 0.010-0.478c-0.035-0.158-0.109-0.305-0.213-0.428s-0.238-0.219-0.387-0.28c-1.366-0.553-2.848-0.761-4.313-0.608s-2.872 0.665-4.094 1.489-2.223 1.936-2.915 3.237c-0.692 1.301-1.054 2.753-1.053 4.227-0.002 1.245 0.254 2.476 0.75 3.617l-7.526 6.507c-0.019 0.015-0.036 0.033-0.054 0.049-0.75 0.75-1.172 1.768-1.172 2.829 0 0.525 0.103 1.046 0.305 1.531s0.496 0.926 0.867 1.298 0.812 0.666 1.298 0.867c0.485 0.201 1.006 0.305 1.531 0.305 1.061 0 2.079-0.421 2.829-1.172 0.016-0.016 0.034-0.035 0.049-0.052l6.506-7.529c1.371 0.602 2.869 0.852 4.361 0.728s2.929-0.617 4.182-1.436c1.253-0.819 2.281-1.938 2.993-3.255s1.083-2.79 1.082-4.287c0.002-1.157-0.221-2.303-0.655-3.375zM20 19c-1.184-0.002-2.348-0.303-3.384-0.875-0.201-0.111-0.433-0.149-0.659-0.109s-0.431 0.157-0.581 0.33l-6.987 8.093c-0.378 0.359-0.882 0.557-1.403 0.55s-1.020-0.217-1.389-0.586-0.579-0.867-0.586-1.389c-0.007-0.522 0.191-1.025 0.55-1.403l8.086-6.986c0.174-0.15 0.291-0.355 0.331-0.581s0.002-0.459-0.11-0.66c-0.637-1.153-0.937-2.462-0.863-3.778s0.517-2.583 1.279-3.658 1.812-1.913 3.029-2.417c1.217-0.505 2.552-0.656 3.851-0.436l-3.9 4.226c-0.109 0.118-0.187 0.26-0.229 0.414s-0.047 0.317-0.013 0.473l0.707 3.291c0.041 0.188 0.134 0.361 0.271 0.497s0.309 0.23 0.497 0.271l3.294 0.707c0.157 0.034 0.319 0.029 0.473-0.013s0.296-0.121 0.414-0.229l4.226-3.9c0.169 1.004 0.116 2.032-0.153 3.014s-0.749 1.893-1.406 2.67c-0.657 0.777-1.476 1.402-2.399 1.831s-1.928 0.652-2.946 0.653z"></path>
</symbol>
<symbol id="icon-Coins" viewBox="0 0 32 32">
<path fill="#fff" style="fill: var(--color1, #fff)" d="M23 11.196v-0.696c0-3.135-4.729-5.5-11-5.5s-11 2.365-11 5.5v5c0 2.611 3.281 4.686 8 5.308v0.692c0 3.135 4.729 5.5 11 5.5s11-2.365 11-5.5v-5c0-2.588-3.178-4.665-8-5.304zM29 16.5c0 1.652-3.849 3.5-9 3.5-0.466 0-0.929-0.016-1.385-0.046 2.696-0.983 4.385-2.579 4.385-4.454v-2.283c3.734 0.556 6 2.066 6 3.283zM9 18.781v-2.974c0.995 0.13 1.997 0.194 3 0.192 1.003 0.001 2.005-0.063 3-0.193v2.974c-0.993 0.147-1.996 0.22-3 0.219-1.004 0.001-2.007-0.072-3-0.219zM21 13.741v1.759c0 1.049-1.551 2.175-4 2.859v-2.921c1.614-0.391 2.98-0.974 4-1.696zM12 7c5.151 0 9 1.848 9 3.5s-3.849 3.5-9 3.5c-5.151 0-9-1.848-9-3.5s3.849-3.5 9-3.5zM3 15.5v-1.759c1.020 0.723 2.386 1.305 4 1.696v2.921c-2.449-0.684-4-1.81-4-2.859zM11 21.5v-0.521c0.329 0.012 0.661 0.021 1 0.021 0.485 0 0.959-0.016 1.424-0.044 0.517 0.185 1.043 0.342 1.576 0.47v2.933c-2.449-0.684-4-1.81-4-2.859zM17 24.781v-2.981c0.994 0.134 1.997 0.201 3 0.2 1.003 0.001 2.005-0.063 3-0.192v2.974c-1.989 0.292-4.011 0.292-6 0zM25 24.359v-2.921c1.614-0.391 2.98-0.974 4-1.696v1.759c0 1.049-1.551 2.175-4 2.859z"></path>
</symbol>
<symbol id="icon-Clock" viewBox="0 0 32 32">
<path fill="#fff" style="fill: var(--color1, #fff)" d="M16 3c-2.571 0-5.085 0.762-7.222 2.191s-3.804 3.459-4.788 5.834-1.241 4.989-0.74 7.511c0.502 2.522 1.74 4.838 3.558 6.656s4.135 3.056 6.656 3.558c2.522 0.502 5.136 0.244 7.511-0.74s4.406-2.65 5.834-4.788c1.428-2.138 2.191-4.651 2.191-7.222-0.004-3.447-1.374-6.751-3.812-9.188s-5.742-3.808-9.188-3.812zM16 27c-2.176 0-4.302-0.645-6.111-1.854s-3.219-2.927-4.051-4.937-1.050-4.222-0.626-6.355c0.424-2.134 1.472-4.094 3.010-5.632s3.498-2.586 5.632-3.010c2.134-0.424 4.346-0.207 6.355 0.626s3.728 2.242 4.937 4.051c1.209 1.809 1.854 3.936 1.854 6.111-0.003 2.916-1.163 5.712-3.225 7.775s-4.858 3.222-7.775 3.225zM24 16c0 0.265-0.105 0.52-0.293 0.707s-0.442 0.293-0.707 0.293h-7c-0.265 0-0.52-0.105-0.707-0.293s-0.293-0.442-0.293-0.707v-7c0-0.265 0.105-0.52 0.293-0.707s0.442-0.293 0.707-0.293 0.52 0.105 0.707 0.293c0.188 0.188 0.293 0.442 0.293 0.707v6h6c0.265 0 0.52 0.105 0.707 0.293s0.293 0.442 0.293 0.707z"></path>
</symbol>
<symbol id="icon-Smiley" viewBox="0 0 32 32">
<path fill="#fff" style="fill: var(--color1, #fff)" d="M16 3c-2.571 0-5.085 0.762-7.222 2.191s-3.804 3.459-4.788 5.834-1.241 4.989-0.74 7.511c0.502 2.522 1.74 4.838 3.558 6.656s4.135 3.056 6.656 3.558c2.522 0.502 5.136 0.244 7.511-0.74s4.406-2.65 5.834-4.788c1.428-2.138 2.191-4.651 2.191-7.222-0.004-3.447-1.374-6.751-3.812-9.188s-5.742-3.808-9.188-3.812zM16 27c-2.176 0-4.302-0.645-6.111-1.854s-3.219-2.927-4.051-4.937-1.050-4.222-0.626-6.355c0.424-2.134 1.472-4.094 3.010-5.632s3.498-2.586 5.632-3.010c2.134-0.424 4.346-0.207 6.355 0.626s3.728 2.242 4.937 4.051c1.209 1.809 1.854 3.936 1.854 6.111-0.003 2.916-1.163 5.712-3.225 7.775s-4.858 3.222-7.775 3.225zM10 13.5c0-0.297 0.088-0.587 0.253-0.833s0.399-0.439 0.673-0.553c0.274-0.114 0.576-0.143 0.867-0.085s0.558 0.201 0.768 0.411 0.353 0.477 0.411 0.768c0.058 0.291 0.028 0.593-0.085 0.867s-0.306 0.508-0.552 0.673c-0.247 0.165-0.537 0.253-0.833 0.253-0.398 0-0.779-0.158-1.061-0.439s-0.439-0.663-0.439-1.061zM22 13.5c0 0.297-0.088 0.587-0.253 0.833s-0.399 0.439-0.673 0.553c-0.274 0.114-0.576 0.143-0.867 0.085s-0.558-0.201-0.768-0.411-0.353-0.477-0.41-0.768c-0.058-0.291-0.028-0.593 0.085-0.867s0.306-0.508 0.552-0.673c0.247-0.165 0.537-0.253 0.833-0.253 0.398 0 0.779 0.158 1.061 0.439s0.439 0.663 0.439 1.061zM21.866 19.5c-1.286 2.224-3.425 3.5-5.866 3.5s-4.579-1.275-5.865-3.5c-0.072-0.114-0.121-0.241-0.143-0.374s-0.017-0.269 0.015-0.4c0.032-0.131 0.090-0.254 0.171-0.362s0.183-0.198 0.3-0.266c0.117-0.067 0.246-0.111 0.38-0.127s0.27-0.005 0.399 0.032c0.13 0.038 0.25 0.101 0.354 0.186s0.19 0.191 0.253 0.311c0.934 1.614 2.401 2.5 4.135 2.5s3.201-0.887 4.134-2.5c0.133-0.23 0.351-0.397 0.607-0.466s0.529-0.033 0.759 0.1c0.23 0.133 0.397 0.351 0.466 0.607s0.033 0.529-0.1 0.759z"></path>
</symbol>
<symbol id="icon-ArrowRight" viewBox="0 0 32 32">
<path fill="#043565" style="fill: var(--color4, #043565)" d="M27.707 16.707l-9 9c-0.188 0.188-0.442 0.293-0.707 0.293s-0.52-0.105-0.707-0.293c-0.188-0.188-0.293-0.442-0.293-0.707s0.105-0.52 0.293-0.707l7.294-7.293h-19.586c-0.265 0-0.52-0.105-0.707-0.293s-0.293-0.442-0.293-0.707 0.105-0.52 0.293-0.707c0.188-0.188 0.442-0.293 0.707-0.293h19.586l-7.294-7.293c-0.188-0.188-0.293-0.442-0.293-0.707s0.105-0.52 0.293-0.707c0.188-0.188 0.442-0.293 0.707-0.293s0.52 0.105 0.707 0.293l9 9c0.093 0.093 0.167 0.203 0.217 0.325s0.076 0.252 0.076 0.383-0.026 0.261-0.076 0.383c-0.050 0.121-0.124 0.232-0.217 0.325z"></path>
</symbol>
<symbol id="icon-Timer" viewBox="0 0 32 32">
<path fill="#fff" style="fill: var(--color1, #fff)" d="M16 5c-2.373 0-4.693 0.704-6.667 2.022s-3.511 3.193-4.42 5.385c-0.908 2.193-1.146 4.606-0.683 6.933s1.606 4.466 3.284 6.144 3.816 2.821 6.144 3.284c2.328 0.463 4.741 0.225 6.933-0.683s4.067-2.446 5.385-4.42c1.319-1.973 2.022-4.294 2.022-6.667-0.004-3.182-1.269-6.232-3.519-8.481s-5.3-3.515-8.481-3.519zM16 27c-1.978 0-3.911-0.586-5.556-1.685s-2.926-2.661-3.683-4.488c-0.757-1.827-0.955-3.838-0.569-5.778s1.338-3.722 2.737-5.12c1.398-1.399 3.18-2.351 5.12-2.737s3.95-0.188 5.778 0.569c1.827 0.757 3.389 2.039 4.488 3.683s1.685 3.578 1.685 5.556c-0.003 2.651-1.058 5.193-2.932 7.068s-4.416 2.929-7.068 2.932zM21.708 11.292c0.093 0.093 0.167 0.203 0.217 0.325s0.076 0.252 0.076 0.383-0.026 0.262-0.076 0.383c-0.050 0.121-0.124 0.232-0.217 0.325l-5 5c-0.093 0.093-0.203 0.167-0.325 0.217s-0.251 0.076-0.383 0.076c-0.131 0-0.262-0.026-0.383-0.076s-0.232-0.124-0.325-0.217c-0.093-0.093-0.167-0.203-0.217-0.325s-0.076-0.252-0.076-0.383 0.026-0.262 0.076-0.383c0.050-0.121 0.124-0.232 0.217-0.325l5-5c0.093-0.093 0.203-0.167 0.325-0.217s0.252-0.076 0.383-0.076 0.262 0.026 0.383 0.076c0.121 0.050 0.232 0.124 0.325 0.217zM12 2c0-0.265 0.105-0.52 0.293-0.707s0.442-0.293 0.707-0.293h6c0.265 0 0.52 0.105 0.707 0.293s0.293 0.442 0.293 0.707c0 0.265-0.105 0.52-0.293 0.707s-0.442 0.293-0.707 0.293h-6c-0.265 0-0.52-0.105-0.707-0.293s-0.293-0.442-0.293-0.707z"></path>
</symbol>
<symbol id="icon-Handshake" viewBox="0 0 32 32">
<path fill="#043565" style="fill: var(--color4, #043565)" d="M14.97 27.242c-0.054 0.216-0.179 0.408-0.355 0.546s-0.392 0.212-0.615 0.212c-0.084 0-0.168-0.010-0.25-0.030l-4-1c-0.111-0.028-0.217-0.075-0.313-0.139l-3-2c-0.221-0.147-0.374-0.376-0.426-0.636s0.002-0.53 0.149-0.751c0.147-0.221 0.376-0.374 0.636-0.426s0.53 0.002 0.751 0.149l2.855 1.904 3.832 0.959c0.128 0.031 0.249 0.087 0.355 0.165s0.196 0.176 0.265 0.289c0.068 0.113 0.114 0.238 0.133 0.368s0.014 0.263-0.018 0.391zM31.556 15.185c-0.082 0.249-0.213 0.48-0.384 0.678s-0.381 0.361-0.616 0.478l-2.96 1.48-6.885 6.886c-0.122 0.122-0.274 0.21-0.44 0.256s-0.342 0.048-0.51 0.006l-8-2c-0.122-0.031-0.237-0.084-0.339-0.156l-6.94-4.955-3.035-1.518c-0.474-0.237-0.835-0.653-1.003-1.156s-0.129-1.052 0.108-1.527l3.106-6.211c0.237-0.474 0.653-0.835 1.156-1.003s1.052-0.129 1.527 0.108l2.757 1.375 6.625-1.893c0.18-0.051 0.37-0.051 0.55 0l6.625 1.893 2.758-1.375c0.474-0.237 1.023-0.276 1.527-0.108s0.919 0.529 1.156 1.003l3.106 6.211c0.119 0.234 0.189 0.49 0.208 0.752s-0.014 0.525-0.097 0.774zM25.784 16.802l-3.401-6.803h-3.977l-5.405 5.25c1.583 1.011 4.064 1.29 6.29-0.954 0.174-0.175 0.406-0.28 0.653-0.294s0.489 0.063 0.682 0.218l4.301 3.446 0.858-0.864zM2.341 14.553l2.211 1.106 3.106-6.211-2.211-1.106-3.106 6.211zM23.5 19.082l-3.464-2.774c-2.442 2-5.544 2.264-8.114 0.625-0.253-0.161-0.466-0.376-0.625-0.631s-0.257-0.541-0.29-0.839c-0.033-0.298 0.002-0.599 0.101-0.882s0.261-0.539 0.473-0.751c0.003-0.004 0.006-0.007 0.010-0.010l5.607-5.439-1.2-0.342-6.303 1.801-3.421 6.841 6.15 4.394 7.267 1.816 3.806-3.81zM29.655 14.553l-3.102-6.211-2.211 1.106 3.106 6.211 2.207-1.106z"></path>
</symbol>
<symbol id="icon-ArrowFatLineUp" viewBox="0 0 32 32">
<path fill="#fff" style="fill: var(--color1, #fff)" d="M28.708 14.292l-12-12c-0.093-0.093-0.203-0.167-0.325-0.217s-0.252-0.076-0.383-0.076-0.262 0.026-0.383 0.076c-0.121 0.050-0.232 0.124-0.325 0.217l-12 12c-0.14 0.14-0.235 0.318-0.274 0.512s-0.019 0.395 0.057 0.578c0.076 0.183 0.204 0.339 0.369 0.449s0.358 0.168 0.556 0.168h5v7c0 0.265 0.105 0.52 0.293 0.707s0.442 0.293 0.707 0.293h12c0.265 0 0.52-0.105 0.707-0.293s0.293-0.442 0.293-0.707v-7h5c0.198 0 0.391-0.058 0.556-0.168s0.293-0.266 0.369-0.449 0.096-0.384 0.057-0.578c-0.039-0.194-0.134-0.372-0.274-0.512zM22 14c-0.265 0-0.52 0.105-0.707 0.293s-0.293 0.442-0.293 0.707v7h-10v-7c0-0.265-0.105-0.52-0.293-0.707s-0.442-0.293-0.707-0.293h-3.586l9.586-9.586 9.586 9.586h-3.586zM23 27c0 0.265-0.105 0.52-0.293 0.707s-0.442 0.293-0.707 0.293h-12c-0.265 0-0.52-0.105-0.707-0.293s-0.293-0.442-0.293-0.707c0-0.265 0.105-0.52 0.293-0.707s0.442-0.293 0.707-0.293h12c0.265 0 0.52 0.105 0.707 0.293s0.293 0.442 0.293 0.707z"></path>
</symbol>
<symbol id="icon-Warning" viewBox="0 0 32 32">
<path fill="#fff" style="fill: var(--color1, #fff)" d="M29.6 23.511l-10.931-18.984c-0.273-0.465-0.663-0.851-1.131-1.119s-0.998-0.409-1.538-0.409c-0.539 0-1.069 0.141-1.538 0.409s-0.858 0.654-1.131 1.119l-10.931 18.984c-0.263 0.45-0.401 0.962-0.401 1.483s0.139 1.033 0.401 1.482c0.27 0.468 0.659 0.856 1.128 1.123s1.001 0.406 1.541 0.4h21.862c0.54 0.005 1.071-0.133 1.539-0.401s0.857-0.655 1.127-1.123c0.263-0.45 0.402-0.961 0.403-1.482s-0.138-1.033-0.4-1.483zM27.866 25.475c-0.095 0.163-0.232 0.297-0.396 0.389s-0.35 0.139-0.539 0.136h-21.862c-0.188 0.003-0.374-0.044-0.539-0.136s-0.301-0.227-0.396-0.389c-0.086-0.146-0.132-0.313-0.132-0.482s0.046-0.336 0.132-0.482l10.931-18.984c0.097-0.162 0.235-0.296 0.399-0.389s0.35-0.142 0.539-0.142 0.374 0.049 0.539 0.142c0.164 0.093 0.302 0.227 0.399 0.389l10.931 18.984c0.086 0.147 0.13 0.313 0.129 0.483s-0.047 0.336-0.134 0.482zM15 18v-5c0-0.265 0.105-0.52 0.293-0.707s0.442-0.293 0.707-0.293c0.265 0 0.52 0.105 0.707 0.293s0.293 0.442 0.293 0.707v5c0 0.265-0.105 0.52-0.293 0.707s-0.442 0.293-0.707 0.293c-0.265 0-0.52-0.105-0.707-0.293s-0.293-0.442-0.293-0.707zM17.5 22.5c0 0.297-0.088 0.587-0.253 0.833s-0.399 0.439-0.673 0.552c-0.274 0.114-0.576 0.143-0.867 0.085s-0.558-0.201-0.768-0.411c-0.21-0.21-0.353-0.477-0.41-0.768s-0.028-0.593 0.085-0.867c0.114-0.274 0.306-0.508 0.552-0.673s0.537-0.253 0.833-0.253c0.398 0 0.779 0.158 1.061 0.439s0.439 0.663 0.439 1.061z"></path>
</symbol>
<symbol id="icon-Phone" viewBox="0 0 32 32">
<path  d="M27.796 19.808l-5.905-2.646c-0.306-0.131-0.639-0.183-0.97-0.153s-0.649 0.143-0.926 0.328c-0.033 0.022-0.064 0.045-0.094 0.070l-3.042 2.594c-1.928-0.936-3.918-2.911-4.854-4.814l2.598-3.089c0.025-0.031 0.049-0.063 0.071-0.096 0.181-0.276 0.29-0.592 0.319-0.921s-0.024-0.659-0.154-0.962v-0.015l-2.646-5.899c-0.172-0.396-0.467-0.726-0.841-0.94s-0.808-0.302-1.236-0.25c-1.694 0.223-3.249 1.055-4.374 2.34s-1.744 2.936-1.741 4.645c0 9.925 8.075 18 18 18 1.708 0.003 3.359-0.616 4.645-1.741s2.117-2.68 2.34-4.374c0.052-0.428-0.035-0.862-0.249-1.236s-0.544-0.669-0.939-0.841zM22 26c-4.242-0.005-8.309-1.692-11.309-4.691s-4.687-7.067-4.691-11.309c-0.005-1.221 0.435-2.401 1.237-3.321s1.912-1.517 3.122-1.679c-0.001 0.005-0.001 0.010 0 0.015l2.625 5.875-2.584 3.092c-0.026 0.030-0.050 0.062-0.071 0.096-0.188 0.289-0.298 0.621-0.32 0.965s0.045 0.688 0.195 0.998c1.133 2.316 3.466 4.633 5.807 5.764 0.313 0.149 0.658 0.213 1.003 0.189s0.678-0.139 0.966-0.331c0.032-0.022 0.063-0.045 0.093-0.070l3.039-2.592 5.875 2.631c0 0 0.010 0 0.014 0-0.16 1.212-0.756 2.323-1.676 3.127s-2.102 1.245-3.324 1.241z"></path>
</symbol>
<symbol id="icon-Frame-153" viewBox="0 0 28 32">
<path d="M5.303 15.578l23.078-11.795-0.882-2.005-27.499 13.8 27.436 14.644 1.009-1.94-23.141-12.704z"></path>
</symbol>
<symbol id="icon-Check" viewBox="0 0 32 32">
<path fill="#043565" style="fill: var(--color1, #043565)" d="M28.707 9.707l-16 16c-0.093 0.093-0.203 0.167-0.325 0.217s-0.252 0.076-0.383 0.076c-0.131 0-0.262-0.026-0.383-0.076s-0.232-0.124-0.325-0.217l-7-7c-0.188-0.188-0.293-0.442-0.293-0.707s0.105-0.52 0.293-0.707c0.188-0.188 0.442-0.293 0.707-0.293s0.52 0.105 0.707 0.293l6.293 6.294 15.293-15.294c0.188-0.188 0.442-0.293 0.707-0.293s0.52 0.105 0.707 0.293c0.188 0.188 0.293 0.442 0.293 0.707s-0.105 0.52-0.293 0.707z"></path>
</symbol>
<symbol id="icon-Vector" viewBox="0 0 46 32">
<path fill="#fff" style="fill: var(--color1, #fff)" d="M43.925 3.036l-28.444 28.444c-0.165 0.165-0.361 0.296-0.577 0.386s-0.447 0.136-0.681 0.136-0.465-0.046-0.681-0.136c-0.216-0.089-0.412-0.221-0.577-0.386l-12.444-12.444c-0.334-0.334-0.521-0.786-0.521-1.258s0.187-0.924 0.521-1.258 0.786-0.521 1.258-0.521c0.472 0 0.924 0.187 1.258 0.521l11.187 11.189 27.187-27.189c0.334-0.334 0.786-0.521 1.258-0.521s0.924 0.187 1.258 0.521c0.334 0.334 0.521 0.786 0.521 1.258s-0.188 0.924-0.521 1.258z"></path>
</symbol>
<symbol id="icon-X" viewBox="0 0 32 32">
<path fill="#bb1414" style="fill: var(--color1, #bb1414)" d="M25.708 24.293c0.093 0.093 0.167 0.203 0.217 0.325s0.076 0.251 0.076 0.383-0.026 0.262-0.076 0.383c-0.050 0.121-0.124 0.232-0.217 0.325s-0.203 0.167-0.325 0.217c-0.121 0.050-0.251 0.076-0.383 0.076s-0.262-0.026-0.383-0.076c-0.121-0.050-0.232-0.124-0.325-0.217l-8.292-8.294-8.293 8.294c-0.188 0.188-0.442 0.293-0.707 0.293s-0.52-0.105-0.707-0.293c-0.188-0.188-0.293-0.442-0.293-0.708s0.105-0.52 0.293-0.707l8.294-8.293-8.294-8.293c-0.188-0.188-0.293-0.442-0.293-0.707s0.105-0.52 0.293-0.707c0.188-0.188 0.442-0.293 0.707-0.293s0.52 0.105 0.707 0.293l8.293 8.294 8.292-8.294c0.188-0.188 0.442-0.293 0.708-0.293s0.52 0.105 0.707 0.293c0.188 0.188 0.293 0.442 0.293 0.707s-0.106 0.52-0.293 0.707l-8.294 8.293 8.294 8.293z"></path>
</symbol>
<symbol id="icon-CheckInput" viewBox="0 0 32 32">
<path fill="#fff" style="fill: var(--color2, #fff)" d="M28.708 9.708l-16 16c-0.093 0.093-0.203 0.167-0.325 0.217s-0.252 0.076-0.383 0.076-0.262-0.026-0.383-0.076c-0.121-0.050-0.232-0.124-0.325-0.217l-7-7c-0.188-0.188-0.293-0.442-0.293-0.707s0.105-0.52 0.293-0.707c0.188-0.188 0.442-0.293 0.707-0.293s0.52 0.105 0.707 0.293l6.293 6.294 15.292-15.294c0.188-0.188 0.442-0.293 0.708-0.293s0.52 0.105 0.707 0.293c0.188 0.188 0.293 0.442 0.293 0.707s-0.106 0.52-0.293 0.707z"></path>
</symbol>
</defs>
</svg>