<svg width="13" height="9" viewBox="0 0 13 9" fill="none" xmlns="http://www.w3.org/2000/svg">
<path d="M12.354 0.853784L4.35403 8.85378C4.30759 8.90027 4.25245 8.93715 4.19175 8.96231C4.13105 8.98748 4.06599 9.00043 4.00028 9.00043C3.93457 9.00043 3.86951 8.98748 3.80881 8.96231C3.74811 8.93715 3.69296 8.90027 3.64653 8.85378L0.146528 5.35378C0.0527077 5.25996 0 5.13272 0 5.00003C0 4.86735 0.0527077 4.7401 0.146528 4.64628C0.240348 4.55246 0.367596 4.49976 0.500278 4.49976C0.63296 4.49976 0.760208 4.55246 0.854028 4.64628L4.00028 7.79316L11.6465 0.146284C11.7403 0.0524633 11.8676 -0.000244142 12.0003 -0.000244141C12.133 -0.00024414 12.2602 0.0524633 12.354 0.146284C12.4478 0.240104 12.5006 0.367352 12.5006 0.500034C12.5006 0.632716 12.4478 0.759964 12.354 0.853784Z" fill="white"/>
</svg>
